# xmcd
#
# Track frame offsets:
#	150
#	17472
#	33806
#	51510
#	71881
#	97067
#	115836
#	135882
#	156921
#	171905
#	188387
#	205932
#	224347
#	240524
#	255796
#	278170
#
# Disc length: 3926 seconds
#
# Revision: 0
# Processed by: cddbd v1.5.1PL2 Copyright (c) Steve Scherf et al.
# Submitted via: dBpowerAMP V4.0
#
DISCID=d60f5410
DTITLE=Reef The Lost Cause - Feast or Famine
DYEAR=1900
DGENRE=Rap
TTITLE0=Humble Beginnings
TTITLE1=Sound Of Philadelphia
TTITLE2=Commander In Chief
TTITLE3=How You Lose Your Mind
TTITLE4=Crown Of Thorns
TTITLE5=Give It Up
TTITLE6=Fiar One ft. Sean Price
TTITLE7=Im Rich ft. Chardon Don
TTITLE8=Main Event
TTITLE9=Coltrane Ft. State Store
TTITLE10=Already Dead ft. Chief Kamachi
TTITLE11=Look At The Sun
TTITLE12=Two Guns Up
TTITLE13=Crumbs ft. King Magnetic
TTITLE14=Eyes Of My Father
TTITLE15=Live As It Gets
EXTD=Reef The Lost Cause
EXTT0=
EXTT1=
EXTT2=
EXTT3=
EXTT4=
EXTT5=
EXTT6=
EXTT7=
EXTT8=
EXTT9=
EXTT10=
EXTT11=
EXTT12=
EXTT13=
EXTT14=
EXTT15=
PLAYORDER=
